<svg width="40" height="20" viewBox="0 0 40 20" fill="none" xmlns="http://www.w3.org/2000/svg">
<rect x="0.5" y="0.5" width="38.7211" height="19" rx="9.5" fill="white" stroke="url(#paint0_linear)"/>
<path d="M22.638 6V13H21.918V6.64H20.268V6H22.638ZM29.0913 12.36V13H24.1813V12.49L27.0913 9.64C27.458 9.28 27.7046 8.97 27.8313 8.71C27.9646 8.44333 28.0313 8.17667 28.0313 7.91C28.0313 7.49667 27.888 7.17667 27.6013 6.95C27.3213 6.71667 26.918 6.6 26.3913 6.6C25.5713 6.6 24.9346 6.86 24.4813 7.38L23.9713 6.94C24.2446 6.62 24.5913 6.37333 25.0113 6.2C25.438 6.02667 25.918 5.94 26.4513 5.94C27.1646 5.94 27.728 6.11 28.1413 6.45C28.5613 6.78333 28.7713 7.24333 28.7713 7.83C28.7713 8.19 28.6913 8.53667 28.5313 8.87C28.3713 9.20333 28.068 9.58667 27.6213 10.02L25.2413 12.36H29.0913Z" fill="#BC9CFF"/>
<path d="M9.93026 13.8867L9.3248 13.3398C8.63469 12.7148 8.13339 12.2526 7.82089 11.9531C7.50839 11.6536 7.15683 11.2826 6.7662 10.8398C6.3886 10.3971 6.12818 10 5.98495 9.64844C5.84172 9.28385 5.77011 8.91276 5.77011 8.53516C5.77011 7.89714 5.98495 7.35677 6.41464 6.91406C6.85735 6.47135 7.40422 6.25 8.05526 6.25C8.81047 6.25 9.43547 6.54297 9.93026 7.12891C10.4251 6.54297 11.0501 6.25 11.8053 6.25C12.4563 6.25 12.9967 6.47135 13.4264 6.91406C13.8691 7.35677 14.0904 7.89714 14.0904 8.53516C14.0904 9.04297 13.9211 9.57031 13.5826 10.1172C13.2441 10.6641 12.873 11.1393 12.4693 11.543C12.0787 11.9466 11.4342 12.5521 10.5357 13.3594L9.93026 13.8867Z" fill="#BC9CFF"/>
<defs>
<linearGradient id="paint0_linear" x1="19.8605" y1="0" x2="19.8605" y2="20" gradientUnits="userSpaceOnUse">
<stop stop-color="#BC9CFF"/>
<stop offset="1" stop-color="#8BA4F9"/>
</linearGradient>
</defs>
</svg>
